<?xml version="1.0" encoding="UTF-8"?><svg id="Livello_1" xmlns="http://www.w3.org/2000/svg" viewBox="0 0 61.35 60.62"><defs><style>.cls-1{fill:#373737;}</style></defs><path class="cls-1" d="M31.9,8.53c.87-1.3,7.23,0,9.11-1.01,1.88-1.01,3.47-7.52,6.22-7.52s3.18,7.09,5.21,8.53c2.02,1.45,4.92.87,6.94,1.59,6.36,2.17-4.63,7.09-5.21,8.68-.72,2.17,1.3,5.5.43,8.24-1.45,4.92-7.38-2.6-9.4-2.89s-8.24,5.21-9.83,2.75,2.31-7.52,1.59-9.98c-.72-2.46-7.09-5.21-5.06-8.24v-.14Z"/><path class="cls-1" d="M31.61,17.79c.58,0,1.45.43,1.59.87.58,2.31-7.38,7.38-9.11,9.11-6.94,6.36-13.45,13.45-18.51,21.26-3.9,1.88-6.8-.29-5.06-4.48,2.46-5.93,14.75-16.49,20.25-20.39s8.82-6.07,10.85-6.36h0Z"/><path class="cls-1" d="M31.61,25.6c1.45-.29,2.02,2.02,1.3,3.18-8.53,9.11-15.04,19.38-20.25,30.66-2.89,2.89-6.07,0-5.5-3.47.58-3.47,8.39-14.61,10.7-17.35,1.59-1.88,12.44-12.73,13.74-13.02Z"/></svg>