<?xml version="1.0" encoding="UTF-8"?>
<svg id="vector" xmlns="http://www.w3.org/2000/svg" version="1.1" viewBox="0 0 62 62">
  <!-- Generator: Adobe Illustrator 29.1.0, SVG Export Plug-In . SVG Version: 2.1.0 Build 142)  -->
  <defs>
    <style>
      .st0 {
        fill: #373737;
      }

      .st1 {
        fill: #8b8b8b;
        stroke: #5b5b5b;
      }

      .st1, .st2 {
        stroke-width: 2px;
      }

      .st2 {
        fill: #c6c6c6;
        stroke: #373737;
      }
    </style>
  </defs>
  <path id="path_0" class="st2" d="M1,1h60v60H1V1ZM3,3h56v56H3V3Z"/>
  <path id="path_1" class="st1" d="M5,5h52v52H5V5ZM7,7h48v48H7V7Z"/>
  <g>
    <path class="st0" d="M31.9,15.9c.6-.9,5,0,6.3-.7s2.4-5.2,4.3-5.2,2.2,4.9,3.6,5.9,3.4.6,4.8,1.1c4.4,1.5-3.2,4.9-3.6,6-.5,1.5.9,3.8.3,5.7-1,3.4-5.1-1.8-6.5-2s-5.7,3.6-6.8,1.9,1.6-5.2,1.1-6.9-4.9-3.6-3.5-5.7Z"/>
    <path class="st0" d="M31.7,22.3c.4,0,1,.3,1.1.6.4,1.6-5.1,5.1-6.3,6.3-4.8,4.4-9.3,9.3-12.8,14.7-2.7,1.3-4.7-.2-3.5-3.1,1.7-4.1,10.2-11.4,14-14.1s6.3-4.3,7.7-4.5Z"/>
    <path class="st0" d="M31.7,27.7c1-.2,1.4,1.4.9,2.2-5.9,6.3-10.4,13.4-14,21.2-2,2-4.2,0-3.8-2.4s5.8-10.1,7.4-12c1.1-1.3,8.6-8.8,9.5-9Z"/>
  </g>
</svg>